<svg id="_.icon" data-name=".icon" xmlns="http://www.w3.org/2000/svg" width="120" height="120" viewBox="0 0 120 120">
  <metadata><?xpacket begin="﻿" id="W5M0MpCehiHzreSzNTczkc9d"?>
<x:xmpmeta xmlns:x="adobe:ns:meta/" x:xmptk="Adobe XMP Core 5.6-c142 79.160924, 2017/07/13-01:06:39        ">
   <rdf:RDF xmlns:rdf="http://www.w3.org/1999/02/22-rdf-syntax-ns#">
      <rdf:Description rdf:about=""/>
   </rdf:RDF>
</x:xmpmeta>
                                                                                                    
                                                                                                    
                                                                                                    
                                                                                                    
                                                                                                    
                                                                                                    
                                                                                                    
                                                                                                    
                                                                                                    
                                                                                                    
                                                                                                    
                                                                                                    
                                                                                                    
                                                                                                    
                                                                                                    
                                                                                                    
                                                                                                    
                                                                                                    
                                                                                                    
                                                                                                    
                           
<?xpacket end="w"?></metadata>
<defs>
    <style>
      .cls-1 {
        fill: #ffc311;
      }

      .cls-2 {
        fill: #fff;
        fill-rule: evenodd;
      }
    </style>
  </defs>
  <g id="_.bg" data-name=".bg">
    <rect class="cls-1" width="120" height="120"/>
  </g>
  <g id="_.icon-2" data-name=".icon">
    <path id="_" data-name="" class="cls-2" d="M47.476,59.939c-6.6-1.373-11.048-5.926-11.048-9.206V47.519H45A29.617,29.617,0,0,0,47.476,59.939Zm36.089-9.206c0,3.281-4.453,7.834-11.048,9.206a29.616,29.616,0,0,0,2.477-12.42h8.57v3.214Zm4.285-4.285a3.215,3.215,0,0,0-3.214-3.214H74.995V40.02a5.372,5.372,0,0,0-5.356-5.356H50.355A5.372,5.372,0,0,0,45,40.02v3.214H35.357a3.215,3.215,0,0,0-3.214,3.214v4.285c0,6.361,7.7,13.391,18.145,13.893a18.034,18.034,0,0,0,3.18,3.18,6.568,6.568,0,0,1,2.243,5.423c0,2.143-1.071,4.285-4.285,4.285S45,79.658,45,82.872v2.143a1.058,1.058,0,0,0,1.071,1.071H73.924a1.058,1.058,0,0,0,1.071-1.071V82.872c0-3.214-3.214-5.356-6.428-5.356s-4.285-2.142-4.285-4.285a6.568,6.568,0,0,1,2.243-5.423,18.034,18.034,0,0,0,3.18-3.18c10.445-.5,18.145-7.532,18.145-13.893V46.448Z"/>
  </g>
</svg>
