<svg id="_.icon" data-name=".icon" xmlns="http://www.w3.org/2000/svg" width="120" height="120" viewBox="0 0 120 120">
  <metadata><?xpacket begin="﻿" id="W5M0MpCehiHzreSzNTczkc9d"?>
<x:xmpmeta xmlns:x="adobe:ns:meta/" x:xmptk="Adobe XMP Core 5.6-c142 79.160924, 2017/07/13-01:06:39        ">
   <rdf:RDF xmlns:rdf="http://www.w3.org/1999/02/22-rdf-syntax-ns#">
      <rdf:Description rdf:about=""/>
   </rdf:RDF>
</x:xmpmeta>
                                                                                                    
                                                                                                    
                                                                                                    
                                                                                                    
                                                                                                    
                                                                                                    
                                                                                                    
                                                                                                    
                                                                                                    
                                                                                                    
                                                                                                    
                                                                                                    
                                                                                                    
                                                                                                    
                                                                                                    
                                                                                                    
                                                                                                    
                                                                                                    
                                                                                                    
                                                                                                    
                           
<?xpacket end="w"?></metadata>
<defs>
    <style>
      .cls-1 {
        fill: #ffc311;
      }

      .cls-2 {
        fill: #fff;
        fill-rule: evenodd;
      }
    </style>
  </defs>
  <g id="_.bg" data-name=".bg">
    <rect class="cls-1" width="120" height="120"/>
  </g>
  <g id="_.icon-2" data-name=".icon">
    <path id="_" data-name="" class="cls-2" d="M62.5,82.6A2.5,2.5,0,1,1,60,80.1,2.518,2.518,0,0,1,62.5,82.6Zm15-6.25a1.285,1.285,0,0,1-1.25,1.25h-32.5a1.285,1.285,0,0,1-1.25-1.25V38.85a1.285,1.285,0,0,1,1.25-1.25h32.5a1.285,1.285,0,0,1,1.25,1.25v37.5Zm5-37.5a6.268,6.268,0,0,0-6.25-6.25h-32.5a6.268,6.268,0,0,0-6.25,6.25v42.5a6.268,6.268,0,0,0,6.25,6.25h32.5a6.268,6.268,0,0,0,6.25-6.25V38.85Z"/>
  </g>
</svg>
