<svg id="_.icon" data-name=".icon" xmlns="http://www.w3.org/2000/svg" width="120" height="120" viewBox="0 0 120 120">
  <metadata><?xpacket begin="﻿" id="W5M0MpCehiHzreSzNTczkc9d"?>
<x:xmpmeta xmlns:x="adobe:ns:meta/" x:xmptk="Adobe XMP Core 5.6-c142 79.160924, 2017/07/13-01:06:39        ">
   <rdf:RDF xmlns:rdf="http://www.w3.org/1999/02/22-rdf-syntax-ns#">
      <rdf:Description rdf:about=""/>
   </rdf:RDF>
</x:xmpmeta>
                                                                                                    
                                                                                                    
                                                                                                    
                                                                                                    
                                                                                                    
                                                                                                    
                                                                                                    
                                                                                                    
                                                                                                    
                                                                                                    
                                                                                                    
                                                                                                    
                                                                                                    
                                                                                                    
                                                                                                    
                                                                                                    
                                                                                                    
                                                                                                    
                                                                                                    
                                                                                                    
                           
<?xpacket end="w"?></metadata>
<defs>
    <style>
      .cls-1 {
        fill: #ffc311;
      }

      .cls-2 {
        fill: #fff;
        fill-rule: evenodd;
      }
    </style>
  </defs>
  <g id="_.bg" data-name=".bg">
    <rect class="cls-1" width="120" height="120"/>
  </g>
  <g id="_.icon-2" data-name=".icon">
    <path id="_" data-name="" class="cls-2" d="M49.283,49.662a6.428,6.428,0,1,0-6.428,6.428A6.429,6.429,0,0,0,49.283,49.662ZM83.565,62.517L69.638,48.59,52.5,65.731l-5.356-5.356L36.428,71.087v6.428H83.565v-15Zm3.214-23.568A1.1,1.1,0,0,1,87.85,40.02V80.729A1.1,1.1,0,0,1,86.779,81.8H33.214a1.1,1.1,0,0,1-1.071-1.071V40.02a1.1,1.1,0,0,1,1.071-1.071H86.779Zm5.356,1.071a5.372,5.372,0,0,0-5.356-5.356H33.214a5.372,5.372,0,0,0-5.356,5.356V80.729a5.372,5.372,0,0,0,5.356,5.356H86.779a5.372,5.372,0,0,0,5.356-5.356V40.02Z"/>
  </g>
</svg>
