<svg id="_.icon" data-name=".icon" xmlns="http://www.w3.org/2000/svg" width="120" height="120" viewBox="0 0 120 120">
  <metadata><?xpacket begin="﻿" id="W5M0MpCehiHzreSzNTczkc9d"?>
<x:xmpmeta xmlns:x="adobe:ns:meta/" x:xmptk="Adobe XMP Core 5.6-c142 79.160924, 2017/07/13-01:06:39        ">
   <rdf:RDF xmlns:rdf="http://www.w3.org/1999/02/22-rdf-syntax-ns#">
      <rdf:Description rdf:about=""/>
   </rdf:RDF>
</x:xmpmeta>
                                                                                                    
                                                                                                    
                                                                                                    
                                                                                                    
                                                                                                    
                                                                                                    
                                                                                                    
                                                                                                    
                                                                                                    
                                                                                                    
                                                                                                    
                                                                                                    
                                                                                                    
                                                                                                    
                                                                                                    
                                                                                                    
                                                                                                    
                                                                                                    
                                                                                                    
                                                                                                    
                           
<?xpacket end="w"?></metadata>
<defs>
    <style>
      .cls-1 {
        fill: #ffc311;
      }

      .cls-2 {
        fill: #fff;
        fill-rule: evenodd;
      }
    </style>
  </defs>
  <g id="_.bg" data-name=".bg">
    <rect class="cls-1" width="120" height="120"/>
  </g>
  <g id="_.icon-2" data-name=".icon">
    <path id="_" data-name="" class="cls-2" d="M90.938,37.742a2.8,2.8,0,0,1,2.813,2.813V79.93a2.8,2.8,0,0,1-2.812,2.813H32.813A6.6,6.6,0,0,1,26.25,76.18V44.3a2.8,2.8,0,0,1,2.813-2.812H34.1a5.571,5.571,0,0,1,2.051-2.7,5.394,5.394,0,0,1,3.223-1.055H90.938ZM31.875,76.18a0.938,0.938,0,0,0,1.875,0V47.117H31.875V76.18Zm56.25,0.938V43.367H39.375V76.18l-0.117.938H88.125ZM46.406,63.055A1.4,1.4,0,0,1,45,61.648V50.4a1.4,1.4,0,0,1,1.406-1.406H62.344A1.4,1.4,0,0,1,63.75,50.4v11.25a1.4,1.4,0,0,1-1.406,1.406H46.406Zm3.281-9.375v4.688h9.375V53.68H49.688ZM45,70.086a1.4,1.4,0,0,0,1.406,1.406H62.344a1.4,1.4,0,0,0,1.406-1.406V67.273a1.4,1.4,0,0,0-1.406-1.406H46.406A1.4,1.4,0,0,0,45,67.273v2.813Zm22.5,0a1.4,1.4,0,0,0,1.406,1.406H81.094A1.4,1.4,0,0,0,82.5,70.086V67.273a1.4,1.4,0,0,0-1.406-1.406H68.906A1.4,1.4,0,0,0,67.5,67.273v2.813Zm0-16.875a1.4,1.4,0,0,0,1.406,1.406H81.094A1.4,1.4,0,0,0,82.5,53.211V50.4a1.4,1.4,0,0,0-1.406-1.406H68.906A1.4,1.4,0,0,0,67.5,50.4v2.813Zm0,8.438a1.4,1.4,0,0,0,1.406,1.406H81.094A1.4,1.4,0,0,0,82.5,61.648V58.836a1.4,1.4,0,0,0-1.406-1.406H68.906A1.4,1.4,0,0,0,67.5,58.836v2.813Z"/>
  </g>
</svg>
