<svg id="_.icon" data-name=".icon" xmlns="http://www.w3.org/2000/svg" width="120" height="120" viewBox="0 0 120 120">
  <metadata><?xpacket begin="﻿" id="W5M0MpCehiHzreSzNTczkc9d"?>
<x:xmpmeta xmlns:x="adobe:ns:meta/" x:xmptk="Adobe XMP Core 5.6-c142 79.160924, 2017/07/13-01:06:39        ">
   <rdf:RDF xmlns:rdf="http://www.w3.org/1999/02/22-rdf-syntax-ns#">
      <rdf:Description rdf:about=""/>
   </rdf:RDF>
</x:xmpmeta>
                                                                                                    
                                                                                                    
                                                                                                    
                                                                                                    
                                                                                                    
                                                                                                    
                                                                                                    
                                                                                                    
                                                                                                    
                                                                                                    
                                                                                                    
                                                                                                    
                                                                                                    
                                                                                                    
                                                                                                    
                                                                                                    
                                                                                                    
                                                                                                    
                                                                                                    
                                                                                                    
                           
<?xpacket end="w"?></metadata>
<defs>
    <style>
      .cls-1 {
        fill: #ffc311;
      }

      .cls-2 {
        fill: #fff;
        fill-rule: evenodd;
      }
    </style>
  </defs>
  <g id="_.bg" data-name=".bg">
    <rect class="cls-1" width="120" height="120"/>
  </g>
  <g id="_.icon-2" data-name=".icon">
    <path id="_" data-name="" class="cls-2" d="M47.141,74.159a3.215,3.215,0,0,0-3.214-3.214H33.214A3.215,3.215,0,0,0,30,74.159v6.428A3.215,3.215,0,0,0,33.214,83.8H43.927a3.215,3.215,0,0,0,3.214-3.214V74.159Zm0-17.141A3.215,3.215,0,0,0,43.927,53.8H33.214A3.215,3.215,0,0,0,30,57.018v6.428a3.215,3.215,0,0,0,3.214,3.214H43.927a3.215,3.215,0,0,0,3.214-3.214V57.018ZM68.567,74.159a3.215,3.215,0,0,0-3.214-3.214H54.64a3.215,3.215,0,0,0-3.214,3.214v6.428A3.215,3.215,0,0,0,54.64,83.8H65.353a3.215,3.215,0,0,0,3.214-3.214V74.159ZM47.141,39.877a3.215,3.215,0,0,0-3.214-3.214H33.214A3.215,3.215,0,0,0,30,39.877v6.428a3.215,3.215,0,0,0,3.214,3.214H43.927a3.215,3.215,0,0,0,3.214-3.214V39.877ZM68.567,57.018A3.215,3.215,0,0,0,65.353,53.8H54.64a3.215,3.215,0,0,0-3.214,3.214v6.428A3.215,3.215,0,0,0,54.64,66.66H65.353a3.215,3.215,0,0,0,3.214-3.214V57.018ZM89.993,74.159a3.215,3.215,0,0,0-3.214-3.214H76.066a3.215,3.215,0,0,0-3.214,3.214v6.428A3.215,3.215,0,0,0,76.066,83.8H86.779a3.215,3.215,0,0,0,3.214-3.214V74.159ZM68.567,39.877a3.215,3.215,0,0,0-3.214-3.214H54.64a3.215,3.215,0,0,0-3.214,3.214v6.428a3.215,3.215,0,0,0,3.214,3.214H65.353a3.215,3.215,0,0,0,3.214-3.214V39.877ZM89.993,57.018A3.215,3.215,0,0,0,86.779,53.8H76.066a3.215,3.215,0,0,0-3.214,3.214v6.428a3.215,3.215,0,0,0,3.214,3.214H86.779a3.215,3.215,0,0,0,3.214-3.214V57.018Zm0-17.141a3.215,3.215,0,0,0-3.214-3.214H76.066a3.215,3.215,0,0,0-3.214,3.214v6.428a3.215,3.215,0,0,0,3.214,3.214H86.779a3.215,3.215,0,0,0,3.214-3.214V39.877Z"/>
  </g>
</svg>
