<svg id="_.icon" data-name=".icon" xmlns="http://www.w3.org/2000/svg" width="120" height="120" viewBox="0 0 120 120">
  <metadata><?xpacket begin="﻿" id="W5M0MpCehiHzreSzNTczkc9d"?>
<x:xmpmeta xmlns:x="adobe:ns:meta/" x:xmptk="Adobe XMP Core 5.6-c142 79.160924, 2017/07/13-01:06:39        ">
   <rdf:RDF xmlns:rdf="http://www.w3.org/1999/02/22-rdf-syntax-ns#">
      <rdf:Description rdf:about=""/>
   </rdf:RDF>
</x:xmpmeta>
                                                                                                    
                                                                                                    
                                                                                                    
                                                                                                    
                                                                                                    
                                                                                                    
                                                                                                    
                                                                                                    
                                                                                                    
                                                                                                    
                                                                                                    
                                                                                                    
                                                                                                    
                                                                                                    
                                                                                                    
                                                                                                    
                                                                                                    
                                                                                                    
                                                                                                    
                                                                                                    
                           
<?xpacket end="w"?></metadata>
<defs>
    <style>
      .cls-1 {
        fill: #ffc311;
      }

      .cls-2 {
        fill: #fff;
        fill-rule: evenodd;
      }
    </style>
  </defs>
  <g id="_.bg" data-name=".bg">
    <rect class="cls-1" width="120" height="120"/>
  </g>
  <g id="_.icon-2" data-name=".icon">
    <path id="_" data-name="" class="cls-2" d="M47.71,60.375A15.129,15.129,0,0,1,45,51.8a16.35,16.35,0,0,1,.167-2.209,13.393,13.393,0,0,1-4.453.77c-4.519,0-8-2.846-8.7-2.846-4.252,0-4.151,9.106-4.151,11.818,0,3.716,3.147,5.323,6.495,5.323h4.486A11.849,11.849,0,0,1,47.71,60.375ZM83.565,81.7c0-7.566-1.774-19.183-11.583-19.183-1.138,0-5.289,4.653-11.985,4.653S49.15,62.517,48.011,62.517c-9.809,0-11.583,11.617-11.583,19.183,0,5.423,3.582,8.671,8.939,8.671h29.26C79.983,90.371,83.565,87.123,83.565,81.7ZM49.283,38.949a8.57,8.57,0,1,0-8.57,8.57A8.587,8.587,0,0,0,49.283,38.949ZM72.852,51.8A12.855,12.855,0,1,0,60,64.66,12.859,12.859,0,0,0,72.852,51.8Zm19.283,7.532c0-2.712.1-11.818-4.151-11.818-0.7,0-4.185,2.846-8.7,2.846a13.392,13.392,0,0,1-4.453-.77,16.367,16.367,0,0,1,.167,2.209,15.13,15.13,0,0,1-2.712,8.57,11.849,11.849,0,0,1,8.872,4.285H85.64C88.988,64.66,92.135,63.053,92.135,59.337ZM87.85,38.949a8.57,8.57,0,1,0-8.57,8.57A8.587,8.587,0,0,0,87.85,38.949Z"/>
  </g>
</svg>
