<svg id="_.icon" data-name=".icon" xmlns="http://www.w3.org/2000/svg" width="120" height="120" viewBox="0 0 120 120">
  <metadata><?xpacket begin="﻿" id="W5M0MpCehiHzreSzNTczkc9d"?>
<x:xmpmeta xmlns:x="adobe:ns:meta/" x:xmptk="Adobe XMP Core 5.6-c142 79.160924, 2017/07/13-01:06:39        ">
   <rdf:RDF xmlns:rdf="http://www.w3.org/1999/02/22-rdf-syntax-ns#">
      <rdf:Description rdf:about=""/>
   </rdf:RDF>
</x:xmpmeta>
                                                                                                    
                                                                                                    
                                                                                                    
                                                                                                    
                                                                                                    
                                                                                                    
                                                                                                    
                                                                                                    
                                                                                                    
                                                                                                    
                                                                                                    
                                                                                                    
                                                                                                    
                                                                                                    
                                                                                                    
                                                                                                    
                                                                                                    
                                                                                                    
                                                                                                    
                                                                                                    
                           
<?xpacket end="w"?></metadata>
<defs>
    <style>
      .cls-1 {
        fill: #ffc311;
      }

      .cls-2 {
        fill: #fff;
        fill-rule: evenodd;
      }
    </style>
  </defs>
  <g id="_.bg" data-name=".bg">
    <rect class="cls-1" width="120" height="120"/>
  </g>
  <g id="_.icon-2" data-name=".icon">
    <path id="_" data-name="" class="cls-2" d="M87.85,65.588a1.1,1.1,0,0,1-1.071,1.071H33.214a1.1,1.1,0,0,1-1.071-1.071V37.735a1.1,1.1,0,0,1,1.071-1.071H86.779a1.1,1.1,0,0,1,1.071,1.071V65.588Zm4.285-27.853a5.372,5.372,0,0,0-5.356-5.357H33.214a5.372,5.372,0,0,0-5.356,5.357V74.159a5.372,5.372,0,0,0,5.356,5.356H51.426c0,2.913-2.143,5.189-2.143,6.428a2.158,2.158,0,0,0,2.143,2.143H68.567a2.157,2.157,0,0,0,2.142-2.143c0-1.172-2.142-3.582-2.142-6.428H86.779a5.372,5.372,0,0,0,5.356-5.356V37.735Z"/>
  </g>
</svg>
