<svg id="_.icon" data-name=".icon" xmlns="http://www.w3.org/2000/svg" width="120" height="120" viewBox="0 0 120 120">
  <metadata><?xpacket begin="﻿" id="W5M0MpCehiHzreSzNTczkc9d"?>
<x:xmpmeta xmlns:x="adobe:ns:meta/" x:xmptk="Adobe XMP Core 5.6-c142 79.160924, 2017/07/13-01:06:39        ">
   <rdf:RDF xmlns:rdf="http://www.w3.org/1999/02/22-rdf-syntax-ns#">
      <rdf:Description rdf:about=""/>
   </rdf:RDF>
</x:xmpmeta>
                                                                                                    
                                                                                                    
                                                                                                    
                                                                                                    
                                                                                                    
                                                                                                    
                                                                                                    
                                                                                                    
                                                                                                    
                                                                                                    
                                                                                                    
                                                                                                    
                                                                                                    
                                                                                                    
                                                                                                    
                                                                                                    
                                                                                                    
                                                                                                    
                                                                                                    
                                                                                                    
                           
<?xpacket end="w"?></metadata>
<defs>
    <style>
      .cls-1 {
        fill: #ffc311;
      }

      .cls-2 {
        fill: #fff;
        fill-rule: evenodd;
      }
    </style>
  </defs>
  <g id="_.bg" data-name=".bg">
    <rect class="cls-1" width="120" height="120"/>
  </g>
  <g id="_.icon-2" data-name=".icon">
    <path id="_" data-name="" class="cls-2" d="M87.5,76.038a1.994,1.994,0,0,0-.117-0.82c-0.273-.82-2.187-1.68-2.969-2.07-2.227-1.25-4.492-2.461-6.68-3.75-1.016-.625-2.266-1.8-3.477-1.8-2.383,0-5.859,7.07-7.969,7.07-1.055,0-2.422-.977-3.359-1.523A38.868,38.868,0,0,1,46.954,57.171c-0.547-.937-1.523-2.3-1.523-3.359,0-2.109,7.07-5.586,7.07-7.969,0-1.211-1.172-2.461-1.8-3.477-1.289-2.187-2.5-4.453-3.75-6.68-0.391-.781-1.25-2.7-2.07-2.969a1.994,1.994,0,0,0-.82-0.117,17.378,17.378,0,0,0-5.43,1.211c-1.914.82-3.164,3.008-4.141,4.766A14.929,14.929,0,0,0,32.5,45.843c0,3.633,1.484,6.914,2.7,10.234a36.516,36.516,0,0,0,3.242,6.836,65.942,65.942,0,0,0,18.75,18.75,36.5,36.5,0,0,0,6.836,3.242c3.32,1.211,6.6,2.7,10.234,2.7a14.929,14.929,0,0,0,7.266-1.992c1.758-.977,3.945-2.227,4.766-4.141A17.378,17.378,0,0,0,87.5,76.038Z"/>
  </g>
</svg>
