<svg id="_.icon" data-name=".icon" xmlns="http://www.w3.org/2000/svg" width="120" height="120" viewBox="0 0 120 120">
  <metadata><?xpacket begin="﻿" id="W5M0MpCehiHzreSzNTczkc9d"?>
<x:xmpmeta xmlns:x="adobe:ns:meta/" x:xmptk="Adobe XMP Core 5.6-c142 79.160924, 2017/07/13-01:06:39        ">
   <rdf:RDF xmlns:rdf="http://www.w3.org/1999/02/22-rdf-syntax-ns#">
      <rdf:Description rdf:about=""/>
   </rdf:RDF>
</x:xmpmeta>
                                                                                                    
                                                                                                    
                                                                                                    
                                                                                                    
                                                                                                    
                                                                                                    
                                                                                                    
                                                                                                    
                                                                                                    
                                                                                                    
                                                                                                    
                                                                                                    
                                                                                                    
                                                                                                    
                                                                                                    
                                                                                                    
                                                                                                    
                                                                                                    
                                                                                                    
                                                                                                    
                           
<?xpacket end="w"?></metadata>
<defs>
    <style>
      .cls-1 {
        fill: #ffc311;
      }

      .cls-2 {
        fill: #fff;
        fill-rule: evenodd;
      }
    </style>
  </defs>
  <g id="_.bg" data-name=".bg">
    <rect class="cls-1" width="120" height="120"/>
  </g>
  <g id="_.icon-2" data-name=".icon">
    <path id="_" data-name="" class="cls-2" d="M36.429,86.085V76.444H46.07v9.642H36.429Zm11.784,0V76.444H58.926v9.642H48.213ZM36.429,74.3V63.588H46.07V74.3H36.429Zm11.784,0V63.588H58.926V74.3H48.213ZM36.429,61.446V51.8H46.07v9.642H36.429Zm24.64,24.64V76.444H71.781v9.642H61.068ZM48.213,61.446V51.8H58.926v9.642H48.213Zm25.711,24.64V76.444h9.642v9.642H73.924ZM61.068,74.3V63.588H71.781V74.3H61.068ZM49.284,45.377a1.1,1.1,0,0,1-1.071,1.071H46.07A1.1,1.1,0,0,1,45,45.377V35.735a1.1,1.1,0,0,1,1.071-1.071h2.143a1.1,1.1,0,0,1,1.071,1.071v9.642ZM73.924,74.3V63.588h9.642V74.3H73.924ZM61.068,61.446V51.8H71.781v9.642H61.068Zm12.855,0V51.8h9.642v9.642H73.924Zm1.071-16.069a1.1,1.1,0,0,1-1.071,1.071H71.781a1.1,1.1,0,0,1-1.071-1.071V35.735a1.1,1.1,0,0,1,1.071-1.071h2.143a1.1,1.1,0,0,1,1.071,1.071v9.642ZM87.85,43.234a4.315,4.315,0,0,0-4.285-4.285H79.28V35.735a5.372,5.372,0,0,0-5.356-5.357H71.781a5.372,5.372,0,0,0-5.356,5.357v3.214H53.569V35.735a5.372,5.372,0,0,0-5.356-5.357H46.07a5.372,5.372,0,0,0-5.356,5.357v3.214H36.429a4.315,4.315,0,0,0-4.285,4.285V86.085a4.315,4.315,0,0,0,4.285,4.285H83.565a4.315,4.315,0,0,0,4.285-4.285V43.234Z"/>
  </g>
</svg>
