<svg id="_.icon" data-name=".icon" xmlns="http://www.w3.org/2000/svg" width="120" height="120" viewBox="0 0 120 120">
  <metadata><?xpacket begin="﻿" id="W5M0MpCehiHzreSzNTczkc9d"?>
<x:xmpmeta xmlns:x="adobe:ns:meta/" x:xmptk="Adobe XMP Core 5.6-c142 79.160924, 2017/07/13-01:06:39        ">
   <rdf:RDF xmlns:rdf="http://www.w3.org/1999/02/22-rdf-syntax-ns#">
      <rdf:Description rdf:about=""/>
   </rdf:RDF>
</x:xmpmeta>
                                                                                                    
                                                                                                    
                                                                                                    
                                                                                                    
                                                                                                    
                                                                                                    
                                                                                                    
                                                                                                    
                                                                                                    
                                                                                                    
                                                                                                    
                                                                                                    
                                                                                                    
                                                                                                    
                                                                                                    
                                                                                                    
                                                                                                    
                                                                                                    
                                                                                                    
                                                                                                    
                           
<?xpacket end="w"?></metadata>
<defs>
    <style>
      .cls-1 {
        fill: #ffc311;
      }

      .cls-2 {
        fill: #fff;
        fill-rule: evenodd;
      }
    </style>
  </defs>
  <g id="_.bg" data-name=".bg">
    <rect class="cls-1" width="120" height="120"/>
  </g>
  <g id="_.icon-2" data-name=".icon">
    <path id="_" data-name="" class="cls-2" d="M66.425,54.161a1.1,1.1,0,0,0-1.071-1.071h-7.5v-7.5a1.1,1.1,0,0,0-1.071-1.071H54.64a1.1,1.1,0,0,0-1.071,1.071v7.5h-7.5A1.1,1.1,0,0,0,45,54.161V56.3a1.1,1.1,0,0,0,1.071,1.071h7.5v7.5a1.1,1.1,0,0,0,1.071,1.071h2.143a1.1,1.1,0,0,0,1.071-1.071v-7.5h7.5A1.1,1.1,0,0,0,66.425,56.3V54.161Zm4.285,1.071a15,15,0,1,1-15-15A15.016,15.016,0,0,1,70.71,55.232ZM87.85,83.085a4.31,4.31,0,0,0-1.239-3.013L75.129,68.59a23.57,23.57,0,1,0-6.059,6.059L80.552,86.1a4.2,4.2,0,0,0,3.013,1.272A4.272,4.272,0,0,0,87.85,83.085Z"/>
  </g>
</svg>
