<svg id="_.icon" data-name=".icon" xmlns="http://www.w3.org/2000/svg" width="120" height="120" viewBox="0 0 120 120">
  <metadata><?xpacket begin="﻿" id="W5M0MpCehiHzreSzNTczkc9d"?>
<x:xmpmeta xmlns:x="adobe:ns:meta/" x:xmptk="Adobe XMP Core 5.6-c142 79.160924, 2017/07/13-01:06:39        ">
   <rdf:RDF xmlns:rdf="http://www.w3.org/1999/02/22-rdf-syntax-ns#">
      <rdf:Description rdf:about=""/>
   </rdf:RDF>
</x:xmpmeta>
                                                                                                    
                                                                                                    
                                                                                                    
                                                                                                    
                                                                                                    
                                                                                                    
                                                                                                    
                                                                                                    
                                                                                                    
                                                                                                    
                                                                                                    
                                                                                                    
                                                                                                    
                                                                                                    
                                                                                                    
                                                                                                    
                                                                                                    
                                                                                                    
                                                                                                    
                                                                                                    
                           
<?xpacket end="w"?></metadata>
<defs>
    <style>
      .cls-1 {
        fill: #ffc311;
      }

      .cls-2 {
        fill: #fff;
        fill-rule: evenodd;
      }
    </style>
  </defs>
  <g id="_.bg" data-name=".bg">
    <rect class="cls-1" width="120" height="120"/>
  </g>
  <g id="_.icon-2" data-name=".icon">
    <path id="_" data-name="" class="cls-2" d="M59.227,55.152A7.247,7.247,0,1,0,52,61.915,7.005,7.005,0,0,0,59.227,55.152Zm16.806,0A7.247,7.247,0,1,0,68.8,61.915,6.984,6.984,0,0,0,76.032,55.152Zm7.532,6.026C75.5,65.564,68.533,64.827,64.75,64.66c-2.779-.1-3.816,1.071-3.95,2.912a22.073,22.073,0,0,1-2.042-1.707,3.036,3.036,0,0,1-.335-0.3,4.071,4.071,0,0,0-3.18-.9c-3.716.134-10.512,0.87-18.446-3.281V38.848c0-4.084,1.038-5.356,4.754-5.356H78.778c3.549,0,4.787,1.506,4.787,5.356v22.33Zm5.457-.167c1.071-1.607-.1-3.314-1.875-2.076l-0.7.5V36.2a5.621,5.621,0,0,0-5.39-5.825H38.973a5.621,5.621,0,0,0-5.39,5.825V59.437c-0.234-.167-0.5-0.335-0.736-0.5-1.774-1.239-2.946.469-1.875,2.076,2.143,2.645,6.227,5.892,12.454,8.436-6.6,22.464,16.1,26.046,15.734,14.529,0,0.2.034-6.528,0.034-11.315,0.6,0.134,1.1.268,1.607,0.368,0,4.754.034,11.148,0.034,10.947-0.368,11.516,22.33,7.934,15.735-14.529C82.8,66.9,86.879,63.655,89.022,61.011Z"/>
  </g>
</svg>
