<svg id="_.icon" data-name=".icon" xmlns="http://www.w3.org/2000/svg" width="120" height="120" viewBox="0 0 120 120">
  <metadata><?xpacket begin="﻿" id="W5M0MpCehiHzreSzNTczkc9d"?>
<x:xmpmeta xmlns:x="adobe:ns:meta/" x:xmptk="Adobe XMP Core 5.6-c142 79.160924, 2017/07/13-01:06:39        ">
   <rdf:RDF xmlns:rdf="http://www.w3.org/1999/02/22-rdf-syntax-ns#">
      <rdf:Description rdf:about=""/>
   </rdf:RDF>
</x:xmpmeta>
                                                                                                    
                                                                                                    
                                                                                                    
                                                                                                    
                                                                                                    
                                                                                                    
                                                                                                    
                                                                                                    
                                                                                                    
                                                                                                    
                                                                                                    
                                                                                                    
                                                                                                    
                                                                                                    
                                                                                                    
                                                                                                    
                                                                                                    
                                                                                                    
                                                                                                    
                                                                                                    
                           
<?xpacket end="w"?></metadata>
<defs>
    <style>
      .cls-1 {
        fill: #ffc311;
      }

      .cls-2 {
        fill: #fff;
        fill-rule: evenodd;
      }
    </style>
  </defs>
  <g id="_.bg" data-name=".bg">
    <rect class="cls-1" width="120" height="120"/>
  </g>
  <g id="_.icon-2" data-name=".icon">
    <path id="_" data-name="" class="cls-2" d="M46.07,74.515H34.286V78.8H46.07V74.515ZM57.855,70.23h-8.57a2.158,2.158,0,0,0-2.143,2.143v8.57a2.158,2.158,0,0,0,2.143,2.143h8.57A2.158,2.158,0,0,0,60,80.943v-8.57A2.158,2.158,0,0,0,57.855,70.23Zm5.356-12.856H34.286V61.66H63.211V57.375ZM41.785,40.234h-7.5v4.285h7.5V40.234ZM85.708,74.515H61.068V78.8h24.64V74.515ZM53.569,35.949H45a2.158,2.158,0,0,0-2.143,2.143v8.57A2.158,2.158,0,0,0,45,48.8h8.57a2.158,2.158,0,0,0,2.143-2.143v-8.57A2.158,2.158,0,0,0,53.569,35.949ZM75,53.089h-8.57a2.158,2.158,0,0,0-2.143,2.143V63.8a2.158,2.158,0,0,0,2.143,2.143H75A2.158,2.158,0,0,0,77.138,63.8v-8.57A2.158,2.158,0,0,0,75,53.089Zm10.713,4.285h-7.5V61.66h7.5V57.375Zm0-17.141H56.783v4.285H85.708V40.234Z"/>
  </g>
</svg>
