<svg id="_.icon" data-name=".icon" xmlns="http://www.w3.org/2000/svg" width="120" height="120" viewBox="0 0 120 120">
  <metadata><?xpacket begin="﻿" id="W5M0MpCehiHzreSzNTczkc9d"?>
<x:xmpmeta xmlns:x="adobe:ns:meta/" x:xmptk="Adobe XMP Core 5.6-c142 79.160924, 2017/07/13-01:06:39        ">
   <rdf:RDF xmlns:rdf="http://www.w3.org/1999/02/22-rdf-syntax-ns#">
      <rdf:Description rdf:about=""/>
   </rdf:RDF>
</x:xmpmeta>
                                                                                                    
                                                                                                    
                                                                                                    
                                                                                                    
                                                                                                    
                                                                                                    
                                                                                                    
                                                                                                    
                                                                                                    
                                                                                                    
                                                                                                    
                                                                                                    
                                                                                                    
                                                                                                    
                                                                                                    
                                                                                                    
                                                                                                    
                                                                                                    
                                                                                                    
                                                                                                    
                           
<?xpacket end="w"?></metadata>
<defs>
    <style>
      .cls-1 {
        fill: #ffc311;
      }

      .cls-2 {
        fill: #fff;
        fill-rule: evenodd;
      }
    </style>
  </defs>
  <g id="_.bg" data-name=".bg">
    <rect class="cls-1" width="120" height="120"/>
  </g>
  <g id="_.icon-2" data-name=".icon">
    <path id="_" data-name="" class="cls-2" d="M84.375,33.992A5.6,5.6,0,0,1,90,39.617v41.25a5.6,5.6,0,0,1-5.625,5.625H35.625A5.6,5.6,0,0,1,30,80.867V39.617a5.6,5.6,0,0,1,5.625-5.625h48.75Zm-0.7,46.875a0.829,0.829,0,0,0,.7-0.7V40.32a0.829,0.829,0,0,0-.7-0.7H36.328a0.829,0.829,0,0,0-.7.7V80.164a0.829,0.829,0,0,0,.7.7H83.672ZM78.75,70.086a1.4,1.4,0,0,0-1.406-1.406H53.906A1.4,1.4,0,0,0,52.5,70.086V72.9A1.4,1.4,0,0,0,53.906,74.3H77.344A1.4,1.4,0,0,0,78.75,72.9V70.086Zm0-11.25a1.4,1.4,0,0,0-1.406-1.406H53.906A1.4,1.4,0,0,0,52.5,58.836v2.813a1.4,1.4,0,0,0,1.406,1.406H77.344a1.4,1.4,0,0,0,1.406-1.406V58.836Zm0-11.25a1.4,1.4,0,0,0-1.406-1.406H53.906A1.4,1.4,0,0,0,52.5,47.586V50.4A1.4,1.4,0,0,0,53.906,51.8H77.344A1.4,1.4,0,0,0,78.75,50.4V47.586ZM49.219,48.992a4.2,4.2,0,1,0-1.23,2.988A4.068,4.068,0,0,0,49.219,48.992Zm0,11.25a4.2,4.2,0,1,0-1.23,2.988A4.068,4.068,0,0,0,49.219,60.242Zm0,11.25a4.2,4.2,0,1,0-1.23,2.988A4.068,4.068,0,0,0,49.219,71.492Z"/>
  </g>
</svg>
