<svg id="_.icon" data-name=".icon" xmlns="http://www.w3.org/2000/svg" width="120" height="120" viewBox="0 0 120 120">
  <metadata><?xpacket begin="﻿" id="W5M0MpCehiHzreSzNTczkc9d"?>
<x:xmpmeta xmlns:x="adobe:ns:meta/" x:xmptk="Adobe XMP Core 5.6-c142 79.160924, 2017/07/13-01:06:39        ">
   <rdf:RDF xmlns:rdf="http://www.w3.org/1999/02/22-rdf-syntax-ns#">
      <rdf:Description rdf:about=""/>
   </rdf:RDF>
</x:xmpmeta>
                                                                                                    
                                                                                                    
                                                                                                    
                                                                                                    
                                                                                                    
                                                                                                    
                                                                                                    
                                                                                                    
                                                                                                    
                                                                                                    
                                                                                                    
                                                                                                    
                                                                                                    
                                                                                                    
                                                                                                    
                                                                                                    
                                                                                                    
                                                                                                    
                                                                                                    
                                                                                                    
                           
<?xpacket end="w"?></metadata>
<defs>
    <style>
      .cls-1 {
        fill: #ffc311;
      }

      .cls-2 {
        fill: #fff;
        fill-rule: evenodd;
      }
    </style>
  </defs>
  <g id="_.bg" data-name=".bg">
    <rect class="cls-1" width="120" height="120"/>
  </g>
  <g id="_.icon-2" data-name=".icon">
    <path id="_" data-name="" class="cls-2" d="M42.756,83.612a4.6,4.6,0,0,0-3.716-4.586l3.18-3.85V72.23H31.072v5.089H34.62V75.544c1.071,0,2.176-.067,3.247-0.067v0.034a35.207,35.207,0,0,0-3.75,4.553l0.87,1.875c1.373-.1,3.515,0,3.515,1.875,0,1.339-1.239,1.908-2.41,1.908a5.59,5.59,0,0,1-3.549-1.507l-1.908,2.946a8.119,8.119,0,0,0,5.758,2.209C39.876,89.371,42.756,87.3,42.756,83.612Zm0.067-20.99H39.307v2.009H35.056c0.1-2.611,7.365-3.716,7.365-8.671,0-3.314-2.678-5.156-5.792-5.156A6.412,6.412,0,0,0,30.7,54.42L33.549,56.4a3.54,3.54,0,0,1,2.712-1.942,1.621,1.621,0,0,1,1.808,1.741c0,2.812-7.566,3.75-7.566,9.943a11.07,11.07,0,0,0,.2,1.808H42.823V62.622ZM89.993,73.3a1.079,1.079,0,0,0-1.071-1.071H48.212A1.058,1.058,0,0,0,47.141,73.3v6.428A1.079,1.079,0,0,0,48.212,80.8H88.921a1.1,1.1,0,0,0,1.071-1.071V73.3ZM42.856,43.2H39.24V29.68H35.692l-4.553,4.252,2.377,2.544a6.578,6.578,0,0,0,1.674-1.808h0.067v0.4c0,2.712-.034,5.423-0.034,8.135H31.641v3.314H42.856V43.2ZM89.993,56.161a1.079,1.079,0,0,0-1.071-1.071H48.212a1.058,1.058,0,0,0-1.071,1.071v6.428a1.079,1.079,0,0,0,1.071,1.071H88.921a1.1,1.1,0,0,0,1.071-1.071V56.161Zm0-17.141a1.1,1.1,0,0,0-1.071-1.071H48.212a1.079,1.079,0,0,0-1.071,1.071v6.428a1.079,1.079,0,0,0,1.071,1.071H88.921a1.1,1.1,0,0,0,1.071-1.071V39.02Z"/>
  </g>
</svg>
