<svg id="_.icon" data-name=".icon" xmlns="http://www.w3.org/2000/svg" width="120" height="120" viewBox="0 0 120 120">
  <metadata><?xpacket begin="﻿" id="W5M0MpCehiHzreSzNTczkc9d"?>
<x:xmpmeta xmlns:x="adobe:ns:meta/" x:xmptk="Adobe XMP Core 5.6-c142 79.160924, 2017/07/13-01:06:39        ">
   <rdf:RDF xmlns:rdf="http://www.w3.org/1999/02/22-rdf-syntax-ns#">
      <rdf:Description rdf:about=""/>
   </rdf:RDF>
</x:xmpmeta>
                                                                                                    
                                                                                                    
                                                                                                    
                                                                                                    
                                                                                                    
                                                                                                    
                                                                                                    
                                                                                                    
                                                                                                    
                                                                                                    
                                                                                                    
                                                                                                    
                                                                                                    
                                                                                                    
                                                                                                    
                                                                                                    
                                                                                                    
                                                                                                    
                                                                                                    
                                                                                                    
                           
<?xpacket end="w"?></metadata>
<defs>
    <style>
      .cls-1 {
        fill: #ffc311;
      }

      .cls-2 {
        fill: #fff;
        fill-rule: evenodd;
      }
    </style>
  </defs>
  <g id="_.bg" data-name=".bg">
    <rect class="cls-1" width="120" height="120"/>
  </g>
  <g id="_.icon-2" data-name=".icon">
    <path id="_" data-name="" class="cls-2" d="M84.375,37.742A5.6,5.6,0,0,1,90,43.367v33.75a5.6,5.6,0,0,1-5.625,5.625H35.625A5.6,5.6,0,0,1,30,77.117V43.367a5.6,5.6,0,0,1,5.625-5.625h48.75Zm0,5.625H35.625v4.8q4.1,3.281,15.82,12.422L52.5,61.531a28.647,28.647,0,0,0,3.75,2.813A7.13,7.13,0,0,0,60,65.867a7.13,7.13,0,0,0,3.75-1.523,28.647,28.647,0,0,0,3.75-2.812l1.055-.937q11.719-9.024,15.82-12.422v-4.8Zm-48.75,33.75h48.75V55.32L70.781,66.1a33.988,33.988,0,0,1-4.8,3.516A11.8,11.8,0,0,1,60,71.492a12.42,12.42,0,0,1-6.094-1.875A46.3,46.3,0,0,1,49.1,66.1L35.625,55.32v21.8Z"/>
  </g>
</svg>
