<svg id="_.icon" data-name=".icon" xmlns="http://www.w3.org/2000/svg" width="120" height="120" viewBox="0 0 120 120">
  <metadata><?xpacket begin="﻿" id="W5M0MpCehiHzreSzNTczkc9d"?>
<x:xmpmeta xmlns:x="adobe:ns:meta/" x:xmptk="Adobe XMP Core 5.6-c142 79.160924, 2017/07/13-01:06:39        ">
   <rdf:RDF xmlns:rdf="http://www.w3.org/1999/02/22-rdf-syntax-ns#">
      <rdf:Description rdf:about=""/>
   </rdf:RDF>
</x:xmpmeta>
                                                                                                    
                                                                                                    
                                                                                                    
                                                                                                    
                                                                                                    
                                                                                                    
                                                                                                    
                                                                                                    
                                                                                                    
                                                                                                    
                                                                                                    
                                                                                                    
                                                                                                    
                                                                                                    
                                                                                                    
                                                                                                    
                                                                                                    
                                                                                                    
                                                                                                    
                                                                                                    
                           
<?xpacket end="w"?></metadata>
<defs>
    <style>
      .cls-1 {
        fill: #ffc311;
      }

      .cls-2 {
        fill: #fff;
        fill-rule: evenodd;
      }
    </style>
  </defs>
  <g id="_.bg" data-name=".bg">
    <rect class="cls-1" width="120" height="120"/>
  </g>
  <g id="_.icon-2" data-name=".icon">
    <path id="_" data-name="" class="cls-2" d="M57.854,60.375a8.57,8.57,0,1,1-8.57-8.57A8.587,8.587,0,0,1,57.854,60.375ZM83.565,77.515A4.285,4.285,0,1,1,79.28,73.23,4.293,4.293,0,0,1,83.565,77.515Zm0-34.281a4.285,4.285,0,1,1-4.285-4.285A4.293,4.293,0,0,1,83.565,43.234ZM70.709,57.328a1.037,1.037,0,0,0-.8-1l-5.089-.77a21.589,21.589,0,0,0-1.138-2.745c0.937-1.306,1.942-2.511,2.913-3.816a1.142,1.142,0,0,0,.234-0.636c0-.937-3.95-4.553-4.821-5.357a1.081,1.081,0,0,0-.7-0.268,1.023,1.023,0,0,0-.67.234l-3.95,2.98a16.5,16.5,0,0,0-2.511-1.038L53.4,39.786a1.039,1.039,0,0,0-1-.837H46.17a1.066,1.066,0,0,0-1,.8,33.621,33.621,0,0,0-.77,5.156,17.419,17.419,0,0,0-2.578,1.071l-3.85-3.013a1.263,1.263,0,0,0-.7-0.234c-0.971,0-4.72,4.051-5.39,4.955a1.023,1.023,0,0,0-.234.67,1.246,1.246,0,0,0,.234.669c1.071,1.272,2.076,2.511,3.013,3.85a15.216,15.216,0,0,0-1.071,2.544l-5.189.8a1.044,1.044,0,0,0-.77,1v6.193a0.973,0.973,0,0,0,.8.971l5.089,0.8a17.8,17.8,0,0,0,1.172,2.745c-0.971,1.306-1.975,2.544-2.946,3.817a1.141,1.141,0,0,0-.234.636c0,0.971,3.95,4.553,4.821,5.356a1.08,1.08,0,0,0,.7.268,0.965,0.965,0,0,0,.67-0.234l3.95-2.98A16.493,16.493,0,0,0,44.4,75.841l0.77,5.122a1.039,1.039,0,0,0,1,.837H52.4a1.066,1.066,0,0,0,1-.8,33.441,33.441,0,0,0,.77-5.189,14.32,14.32,0,0,0,2.578-1.038l3.85,3.013a1.262,1.262,0,0,0,.7.234c0.971,0,4.72-4.084,5.39-4.988a0.884,0.884,0,0,0,.234-0.636,1.157,1.157,0,0,0-.234-0.669c-1.071-1.272-2.076-2.511-3.013-3.85a15.216,15.216,0,0,0,1.071-2.544l5.189-.8a1.044,1.044,0,0,0,.77-1V57.328ZM92.135,75.172c0-.5-4.319-0.971-4.988-1.038a9.039,9.039,0,0,0-1-1.741,31.2,31.2,0,0,0,1.707-4.62,0.29,0.29,0,0,0-.134-0.234c-0.4-.234-3.984-2.343-4.151-2.343l-0.2.067a30.063,30.063,0,0,0-3.08,3.749c-0.335-.033-0.67-0.067-1-0.067s-0.669.034-1,.067c-0.335-.5-2.846-3.816-3.281-3.816-0.167,0-3.749,2.143-4.151,2.343a0.29,0.29,0,0,0-.134.234,32.647,32.647,0,0,0,1.707,4.62,9.039,9.039,0,0,0-1,1.741c-0.67.067-4.988,0.536-4.988,1.038v4.687c0,0.5,4.319.971,4.988,1.038a8.131,8.131,0,0,0,1,1.741,32.648,32.648,0,0,0-1.707,4.62,0.29,0.29,0,0,0,.134.234c0.4,0.234,3.984,2.377,4.151,2.377,0.435,0,2.946-3.348,3.281-3.85,0.335,0.034.67,0.067,1,.067s0.67-.033,1-0.067c0.335,0.5,2.846,3.85,3.281,3.85,0.167,0,3.749-2.142,4.151-2.377a0.253,0.253,0,0,0,.134-0.234,31.2,31.2,0,0,0-1.707-4.62,8.131,8.131,0,0,0,1-1.741c0.67-.067,4.988-0.536,4.988-1.038V75.172Zm0-34.281c0-.5-4.319-0.971-4.988-1.038a9.036,9.036,0,0,0-1-1.741,31.2,31.2,0,0,0,1.707-4.62,0.29,0.29,0,0,0-.134-0.234c-0.4-.234-3.984-2.343-4.151-2.343l-0.2.067a30.078,30.078,0,0,0-3.08,3.749c-0.335-.033-0.67-0.067-1-0.067s-0.669.033-1,.067c-0.335-.5-2.846-3.816-3.281-3.816-0.167,0-3.749,2.143-4.151,2.343a0.29,0.29,0,0,0-.134.234,32.652,32.652,0,0,0,1.707,4.62,9.036,9.036,0,0,0-1,1.741c-0.67.067-4.988,0.536-4.988,1.038v4.687c0,0.5,4.319.971,4.988,1.038a8.134,8.134,0,0,0,1,1.741,32.647,32.647,0,0,0-1.707,4.62,0.29,0.29,0,0,0,.134.234c0.4,0.234,3.984,2.377,4.151,2.377,0.435,0,2.946-3.348,3.281-3.85,0.335,0.033.67,0.067,1,.067s0.67-.034,1-0.067c0.335,0.5,2.846,3.85,3.281,3.85,0.167,0,3.749-2.143,4.151-2.377a0.253,0.253,0,0,0,.134-0.234,31.2,31.2,0,0,0-1.707-4.62,8.134,8.134,0,0,0,1-1.741c0.67-.067,4.988-0.536,4.988-1.038V40.89Z"/>
  </g>
</svg>
