<svg id="_.icon" data-name=".icon" xmlns="http://www.w3.org/2000/svg" width="120" height="120" viewBox="0 0 120 120">
  <metadata><?xpacket begin="﻿" id="W5M0MpCehiHzreSzNTczkc9d"?>
<x:xmpmeta xmlns:x="adobe:ns:meta/" x:xmptk="Adobe XMP Core 5.6-c142 79.160924, 2017/07/13-01:06:39        ">
   <rdf:RDF xmlns:rdf="http://www.w3.org/1999/02/22-rdf-syntax-ns#">
      <rdf:Description rdf:about=""/>
   </rdf:RDF>
</x:xmpmeta>
                                                                                                    
                                                                                                    
                                                                                                    
                                                                                                    
                                                                                                    
                                                                                                    
                                                                                                    
                                                                                                    
                                                                                                    
                                                                                                    
                                                                                                    
                                                                                                    
                                                                                                    
                                                                                                    
                                                                                                    
                                                                                                    
                                                                                                    
                                                                                                    
                                                                                                    
                                                                                                    
                           
<?xpacket end="w"?></metadata>
<defs>
    <style>
      .cls-1 {
        fill: #ffc311;
      }

      .cls-2 {
        fill: #fff;
        fill-rule: evenodd;
      }
    </style>
  </defs>
  <g id="_.bg" data-name=".bg">
    <rect class="cls-1" width="120" height="120"/>
  </g>
  <g id="_.icon-2" data-name=".icon">
    <path id="_" data-name="" class="cls-2" d="M86.31,86.085c1.172,0,1.607-1.373,1.607-2.343,0-2.913-3.616-1.54-5.323-2.611-1.071-.669-1.138-3.582-1.138-4.687L81.422,44.874c0-1.205.033-4.653,1.172-5.39,1.674-1.038,5.122.435,5.122-2.477,0-1-.469-2.343-1.674-2.343-2.879,0-5.758.234-8.637,0.234-2.946,0-5.892-.234-8.838-0.234-1.205,0-1.674,1.339-1.674,2.343,0,2.846,3.348,1.507,5.022,2.511,1.172,0.7,1.172,4.118,1.172,5.356L73.053,55.587c0,0.368,0,.7-0.033,1.071a5.585,5.585,0,0,1-1.272.1h-23.4a5.728,5.728,0,0,1-1.306-.1c-0.034-.368-0.034-0.7-0.034-1.071L46.974,44.874c0-1.205,0-4.653,1.172-5.356,1.64-1.038,4.955.368,4.955-2.511,0-1-.469-2.343-1.674-2.343-2.812,0-5.658.234-8.47,0.234-3.08,0-6.193-.234-9.273-0.234-1.172,0-1.607,1.373-1.607,2.343,0,3.013,3.582,1.406,5.256,2.444,1.507,0.9,1.272,6.06,1.272,7.666V74.335l0.033,1.908c0,1.172-.033,4.051-1.1,4.787-1.64,1.138-4.72-.067-4.72,2.846,0,0.937.5,2.21,1.607,2.21,2.846,0,5.691-.234,8.537-0.234,3.08,0,6.193.234,9.307,0.234,1.172,0,1.64-1.339,1.64-2.343,0-3.013-3.95-1.507-5.691-2.578-1.239-.736-1.239-4.218-1.239-5.49l0.033-12.42c0-.368,0-0.7.034-1.038a5.8,5.8,0,0,1,1.707-.134h22.6a5.663,5.663,0,0,1,1.674.134c0.033,0.335.033,0.669,0.033,1.038l0.034,13.09c0,1.172,0,3.984-1.1,4.687-1.741,1.138-5.089-.134-5.089,2.846,0,0.971.536,2.21,1.674,2.21,2.946,0,5.892-.234,8.838-0.234C80.385,85.851,83.364,86.085,86.31,86.085Z"/>
  </g>
</svg>
