<svg id="_.icon" data-name=".icon" xmlns="http://www.w3.org/2000/svg" width="120" height="120" viewBox="0 0 120 120">
  <metadata><?xpacket begin="﻿" id="W5M0MpCehiHzreSzNTczkc9d"?>
<x:xmpmeta xmlns:x="adobe:ns:meta/" x:xmptk="Adobe XMP Core 5.6-c142 79.160924, 2017/07/13-01:06:39        ">
   <rdf:RDF xmlns:rdf="http://www.w3.org/1999/02/22-rdf-syntax-ns#">
      <rdf:Description rdf:about=""/>
   </rdf:RDF>
</x:xmpmeta>
                                                                                                    
                                                                                                    
                                                                                                    
                                                                                                    
                                                                                                    
                                                                                                    
                                                                                                    
                                                                                                    
                                                                                                    
                                                                                                    
                                                                                                    
                                                                                                    
                                                                                                    
                                                                                                    
                                                                                                    
                                                                                                    
                                                                                                    
                                                                                                    
                                                                                                    
                                                                                                    
                           
<?xpacket end="w"?></metadata>
<defs>
    <style>
      .cls-1 {
        fill: #ffc311;
      }

      .cls-2 {
        fill: #fff;
        fill-rule: evenodd;
      }
    </style>
  </defs>
  <g id="_.bg" data-name=".bg">
    <rect class="cls-1" width="120" height="120"/>
  </g>
  <g id="_.icon-2" data-name=".icon">
    <path id="_" data-name="" class="cls-2" d="M89.993,42.163a2.169,2.169,0,0,0-1.306-1.975,2.484,2.484,0,0,0-.837-0.167,2,2,0,0,0-1.507.636L72.852,54.114V48.59a9.644,9.644,0,0,0-9.642-9.642H39.642A9.644,9.644,0,0,0,30,48.59V72.159A9.644,9.644,0,0,0,39.642,81.8H63.21a9.644,9.644,0,0,0,9.642-9.642V66.6L86.344,80.093a2,2,0,0,0,1.507.636,2.484,2.484,0,0,0,.837-0.167,2.169,2.169,0,0,0,1.306-1.975V42.163Z"/>
  </g>
</svg>
