<svg id="_.icon" data-name=".icon" xmlns="http://www.w3.org/2000/svg" width="120" height="120" viewBox="0 0 120 120">
  <metadata><?xpacket begin="﻿" id="W5M0MpCehiHzreSzNTczkc9d"?>
<x:xmpmeta xmlns:x="adobe:ns:meta/" x:xmptk="Adobe XMP Core 5.6-c142 79.160924, 2017/07/13-01:06:39        ">
   <rdf:RDF xmlns:rdf="http://www.w3.org/1999/02/22-rdf-syntax-ns#">
      <rdf:Description rdf:about=""/>
   </rdf:RDF>
</x:xmpmeta>
                                                                                                    
                                                                                                    
                                                                                                    
                                                                                                    
                                                                                                    
                                                                                                    
                                                                                                    
                                                                                                    
                                                                                                    
                                                                                                    
                                                                                                    
                                                                                                    
                                                                                                    
                                                                                                    
                                                                                                    
                                                                                                    
                                                                                                    
                                                                                                    
                                                                                                    
                                                                                                    
                           
<?xpacket end="w"?></metadata>
<defs>
    <style>
      .cls-1 {
        fill: #ffc311;
      }

      .cls-2 {
        fill: #fff;
        fill-rule: evenodd;
      }
    </style>
  </defs>
  <g id="_.bg" data-name=".bg">
    <rect class="cls-1" width="120" height="120"/>
  </g>
  <g id="_.icon-2" data-name=".icon">
    <path id="_" data-name="" class="cls-2" d="M89.992,56.089H30a4.285,4.285,0,0,0,0,8.57h0.5l3.85,22.162a4.3,4.3,0,0,0,4.218,3.549H81.422a4.3,4.3,0,0,0,4.218-3.549L89.49,64.66h0.5A4.285,4.285,0,1,0,89.992,56.089ZM41.952,82.872H41.784A2.176,2.176,0,0,1,39.642,80.9L38.571,66.97a2.149,2.149,0,1,1,4.285-.335l1.071,13.927A2.163,2.163,0,0,1,41.952,82.872Zm13.759-2.143a2.143,2.143,0,0,1-4.285,0V66.8a2.143,2.143,0,0,1,4.285,0V80.729Zm12.856,0a2.143,2.143,0,0,1-4.285,0V66.8a2.143,2.143,0,0,1,4.285,0V80.729ZM80.351,80.9a2.176,2.176,0,0,1-2.143,1.975H78.041a2.163,2.163,0,0,1-1.975-2.31l1.071-13.927a2.149,2.149,0,0,1,4.285.335Zm-38.7-40.742a4.292,4.292,0,0,1,4.185-3.348h5.591a2.158,2.158,0,0,0,2.143,2.143H66.424a2.158,2.158,0,0,0,2.143-2.143h5.591a4.292,4.292,0,0,1,4.185,3.348l3.113,13.793h4.419L82.493,39.183a8.5,8.5,0,0,0-8.336-6.662H68.567a2.158,2.158,0,0,0-2.143-2.143H53.569a2.158,2.158,0,0,0-2.143,2.143H45.835A8.5,8.5,0,0,0,37.5,39.183L34.118,53.947h4.419Z"/>
  </g>
</svg>
